<svg width="55" height="50" viewBox="0 0 55 50" fill="none" xmlns="http://www.w3.org/2000/svg">
<path d="M15.3185 23.6627C14.2516 23.9485 13.6184 25.0449 13.9043 26.1116C14.1902 27.1782 15.2869 27.8112 16.3538 27.5254L36.5964 22.1028C37.6634 21.817 38.2965 20.7206 38.0107 19.654C37.7248 18.5873 36.6281 17.9543 35.5612 18.2401L15.3185 23.6627Z" fill="#B1C909"/>
<path d="M15.6301 32.5508C15.3442 31.4841 15.9774 30.3877 17.0443 30.1019L37.287 24.6793C38.3539 24.3935 39.4506 25.0265 39.7365 26.0932C40.0224 27.1598 39.3892 28.2562 38.3223 28.542L18.0796 33.9647C17.0127 34.2505 15.916 33.6175 15.6301 32.5508Z" fill="#B1C909"/>
<path d="M24.2909 35.0622C23.2239 35.348 22.5908 36.4444 22.8767 37.5111C23.1625 38.5778 24.2592 39.2108 25.3261 38.925L34.5274 36.4601C35.5943 36.1743 36.2275 35.0779 35.9416 34.0113C35.6557 32.9446 34.559 32.3116 33.4921 32.5974L24.2909 35.0622Z" fill="#B1C909"/>
<path fill-rule="evenodd" clip-rule="evenodd" d="M46.068 9.60809L26.7278 0L5.93143 5.57094C1.6637 6.71419 -0.868955 11.0998 0.274579 15.3664L7.96766 44.0701C9.1112 48.3367 13.4979 50.8687 17.7656 49.7255L46.4766 42.0344C50.7443 40.8911 53.277 36.5055 52.1335 32.2389L46.068 9.60809ZM6.96671 9.43366L25.8312 4.38022L27.4588 10.4531C28.3165 13.6531 31.6065 15.5521 34.8073 14.6946L42.722 12.5745L48.2698 33.2739C48.8415 35.4072 47.5752 37.6 45.4413 38.1716L16.7304 45.8628C14.5965 46.4344 12.4031 45.1684 11.8314 43.0351L4.13828 14.3314C3.56651 12.1981 4.83285 10.0053 6.96671 9.43366ZM30.497 6.33804L37.5212 9.82759L33.772 10.8319C32.7051 11.1177 31.6084 10.4847 31.3225 9.41807L30.497 6.33804Z" fill="#B1C909"/>
</svg>
